<?xml version="1.0" encoding="UTF-8" standalone="no"?>
<svg
   version="1.1"
   id="Layer_1"
   x="0px"
   y="0px"
   viewBox="0 0 101.82007 122.87012"
   xml:space="preserve"
   width="101.82008"
   height="122.87012"
   sodipodi:docname="clipboard.svg"
   inkscape:export-filename="clipboard.svg"
   inkscape:export-xdpi="96"
   inkscape:export-ydpi="96"
   xmlns:inkscape="http://www.inkscape.org/namespaces/inkscape"
   xmlns:sodipodi="http://sodipodi.sourceforge.net/DTD/sodipodi-0.dtd"
   xmlns="http://www.w3.org/2000/svg"
   xmlns:svg="http://www.w3.org/2000/svg"><sodipodi:namedview
     id="namedview7"
     pagecolor="#505050"
     bordercolor="#eeeeee"
     borderopacity="1"
     inkscape:showpageshadow="0"
     inkscape:pageopacity="0"
     inkscape:pagecheckerboard="0"
     inkscape:deskcolor="#505050"
     showgrid="false" /><defs
     id="defs81" /><style
     type="text/css"
     id="style72"><![CDATA[
	.st0{fill-rule:evenodd;clip-rule:evenodd;}
]]></style><g
     id="g76"
     style="fill:#ede9e9;fill-opacity:1"
     transform="translate(-1.3845754e-4,4.7395135e-5)"><path
       class="st0"
       d="m 6.77,12.82 h 16.25 v 10.5 h -7.01 c -3.13,0 -5.72,2.59 -5.72,5.72 v 78.43 c 0,3.13 2.58,5.72 5.72,5.72 h 69.8 c 3.14,0 5.72,-2.58 5.72,-5.72 V 29.04 c 0,-3.14 -2.59,-5.72 -5.72,-5.72 H 78.8 v -10.5 h 16.25 c 3.73,0 6.77,3.07 6.77,6.77 v 96.51 c 0,3.71 -3.06,6.77 -6.77,6.77 H 6.77 C 3.06,122.87 0,119.82 0,116.1 V 19.59 c 0,-3.73 3.05,-6.77 6.77,-6.77 z m 31.02,83.07 c -2.01,0 -3.64,-1.63 -3.64,-3.64 0,-2.01 1.63,-3.64 3.64,-3.64 h 26.24 c 2.01,0 3.64,1.63 3.64,3.64 0,2.01 -1.63,3.64 -3.64,3.64 z M 30.03,73.91 c -2.01,0 -3.64,-1.63 -3.64,-3.64 0,-2.01 1.63,-3.64 3.64,-3.64 h 41.76 c 2.01,0 3.64,1.63 3.64,3.64 0,2.01 -1.63,3.64 -3.64,3.64 z M 23.2,51.94 c -2.01,0 -3.64,-1.63 -3.64,-3.64 0,-2.01 1.63,-3.64 3.64,-3.64 h 55.44 c 2.01,0 3.64,1.63 3.64,3.64 0,2.01 -1.63,3.64 -3.64,3.64 z M 32.4,9.46 h 7.68 C 40.73,4.13 45.04,0 50.26,0 c 5.19,0 9.47,4.07 10.17,9.35 l 8.99,0.11 c 0.63,0 1.13,0.5 1.13,1.13 v 15.33 c 0,0.63 -0.5,1.13 -1.13,1.13 h -37 c -0.61,0 -1.13,-0.5 -1.13,-1.13 V 10.59 C 31.27,9.97 31.78,9.46 32.4,9.46 Z m 13.66,4.64 c 0.69,0.95 1.69,1.89 2.74,2.37 0.86,0.26 1.8,0.28 2.67,0.04 1.36,-0.63 2.62,-2.14 3.2,-3.4 0.07,-0.36 0.11,-0.73 0.11,-1.13 0,-2.67 -2.05,-4.84 -4.57,-4.84 -2.53,0 -4.57,2.17 -4.57,4.84 0,0.82 0.15,1.53 0.42,2.12 z"
       id="path74"
       style="fill:#ede9e9;fill-opacity:1" /></g></svg>
