<?xml version="1.0" encoding="UTF-8" standalone="no"?>
<svg
   id="Layer_1"
   data-name="Layer 1"
   viewBox="0 0 122.88 103.78"
   version="1.1"
   sodipodi:docname="paint-brush.svg"
   inkscape:version="1.2.1 (9c6d41e410, 2022-07-14)"
   xmlns:inkscape="http://www.inkscape.org/namespaces/inkscape"
   xmlns:sodipodi="http://sodipodi.sourceforge.net/DTD/sodipodi-0.dtd"
   xmlns="http://www.w3.org/2000/svg"
   xmlns:svg="http://www.w3.org/2000/svg"
   xmlns:rdf="http://www.w3.org/1999/02/22-rdf-syntax-ns#"
   xmlns:cc="http://creativecommons.org/ns#"
   xmlns:dc="http://purl.org/dc/elements/1.1/">
  <sodipodi:namedview
     id="namedview2899"
     pagecolor="#505050"
     bordercolor="#eeeeee"
     borderopacity="1"
     inkscape:showpageshadow="0"
     inkscape:pageopacity="0"
     inkscape:pagecheckerboard="0"
     inkscape:deskcolor="#505050"
     showgrid="false"
     inkscape:zoom="8.392754"
     inkscape:cx="33.183387"
     inkscape:cy="51.949575"
     inkscape:window-width="1914"
     inkscape:window-height="1039"
     inkscape:window-x="0"
     inkscape:window-y="35"
     inkscape:window-maximized="1"
     inkscape:current-layer="Layer_1" />
  <defs
     id="defs2892">
    <style
       id="style2890">.cls-1{fill-rule:evenodd;}</style>
  </defs>
  <title
     id="title2894">paint-brush</title>
  <path
     class="cls-1"
     d="M0,103.78c11.7-8.38,30.46.62,37.83-14a16.66,16.66,0,0,0,.62-13.37,10.9,10.9,0,0,0-3.17-4.35,11.88,11.88,0,0,0-2.11-1.35c-9.63-4.78-19.67,1.91-25,10-4.9,7.43-7,16.71-8.18,23.07ZM54.09,43.42a54.31,54.31,0,0,1,15,18.06l50.19-49.16c3.17-3,5-5.53,2.3-10.13A6.5,6.5,0,0,0,117.41,0,7.09,7.09,0,0,0,112.8,1.6L54.09,43.42Zm-16.85,22c2.82,1.52,6.69,5.25,7.61,9.32L65.83,64c-3.78-7.54-8.61-14-15.23-18.58-6.9,9.27-5.5,11.17-13.36,20Z"
     id="path2896"
     style="fill:#eeecec;fill-opacity:1" />
  <metadata
     id="metadata3419">
    <rdf:RDF>
      <cc:Work
         rdf:about="">
        <dc:title>paint-brush</dc:title>
      </cc:Work>
    </rdf:RDF>
  </metadata>
</svg>
